<?xml version="1.0" encoding="UTF-8" standalone="no"?>
<!DOCTYPE svg PUBLIC "-//W3C//DTD SVG 1.1//EN" "http://www.w3.org/Graphics/SVG/1.1/DTD/svg11.dtd">
<!-- Created with Vectornator (http://vectornator.io/) -->
<svg height="100%" stroke-miterlimit="10" style="fill-rule:nonzero;clip-rule:evenodd;stroke-linecap:round;stroke-linejoin:round;" version="1.1" viewBox="0 0 595.35 419.58" width="100%" xml:space="preserve" xmlns="http://www.w3.org/2000/svg" xmlns:vectornator="http://vectornator.io" xmlns:xlink="http://www.w3.org/1999/xlink">
<defs/>
<g id="Ebene-1" vectornator:layerName="Ebene 1">
<path d="M497.76 381.13C494.613 381.13 491.885 380.061 489.158 376.588C482.654 369.106 474.471 361.357 474.471 346.929L474.471 344.791C476.15 333.569 478.667 328.759 478.667 318.605C478.667 314.063 482.444 310.322 485.801 310.322C489.577 311.124 491.466 314.33 494.823 314.33L495.662 314.33C501.327 317.002 505.942 321.01 509.719 326.354C511.397 329.026 512.866 331.965 512.866 335.706C512.237 342.386 511.397 345.86 511.397 353.609C511.188 359.22 510.558 364.564 509.299 370.175C508.04 378.191 504.474 380.329 497.76 381.13ZM511.817 303.642C510.558 303.642 509.509 303.375 508.25 302.039C504.054 298.565 499.229 296.695 495.872 291.084C493.774 288.144 489.368 287.61 488.319 283.335C486.22 277.456 486.22 274.784 484.542 267.57C488.319 258.218 489.787 247.797 491.256 237.643C494.403 217.871 497.34 197.296 501.536 177.523C504.474 164.43 505.942 150.269 509.09 139.046C513.705 122.213 516.433 104.577 520.629 86.9421C522.307 79.1932 524.825 71.1772 525.245 63.4284C525.245 59.9548 527.343 57.8172 529.861 57.55C545.386 57.55 561.332 68.7724 561.332 84.5373C561.332 86.1405 561.332 87.2093 561.122 88.2781C557.555 107.249 553.779 125.953 549.582 145.459C541.4 188.211 539.512 197.029 533.217 235.506C530.28 252.607 527.343 269.975 526.504 287.61C526.504 292.954 525.245 295.893 522.937 297.764C519.16 301.504 516.852 303.108 511.817 303.642Z" fill="#000000" fill-rule="nonzero" opacity="1" stroke="none"/>
<g opacity="1">
<path d="M164.375 349.066L164.375 349.066C148.01 348.532 138.988 333.569 138.988 314.063C138.988 308.719 139.618 302.573 141.087 296.695C143.814 278.792 178.013 186.608 178.013 168.973C178.013 167.37 177.593 166.301 176.964 166.034L176.334 166.034C162.277 166.034 139.198 250.736 120.945 250.736L118.847 250.202C113.811 248.599 112.133 240.048 112.133 228.291C112.133 195.426 126.19 136.107 126.19 121.945C126.19 119.808 125.98 118.739 125.351 118.739C113.811 119.541 67.2341 334.103 32.406 335.439C20.0274 333.836 16.8802 320.476 16.8802 308.184C16.8802 299.901 18.1391 292.152 19.1881 288.144C28.2099 250.469 46.8828 191.952 56.3241 154.811C58.4222 147.062 60.5203 132.901 60.5203 121.945C60.5203 118.472 60.3105 114.998 59.6811 112.593C57.3732 102.173 53.177 97.8973 48.3514 97.8973C35.9728 97.8973 19.6077 124.35 19.6077 141.718C19.6077 149.467 23.1745 155.345 31.9864 155.88C32.406 155.88 32.8256 156.414 32.8256 156.949C32.8256 157.483 32.6158 158.018 32.406 158.552C31.9864 159.354 31.357 159.621 30.7276 160.155C28.6295 161.224 26.5314 161.758 24.6431 161.758L21.9156 161.491C14.5724 160.422 11.2154 154.009 11.2154 145.192C11.2154 123.014 30.9374 85.8733 51.4985 85.8733C55.4849 85.8733 59.6811 87.2093 63.6674 90.6829C76.0461 100.837 80.6618 118.472 80.6618 139.046C80.6618 197.83 44.1553 282.266 44.1553 299.901C44.1553 300.97 44.3651 302.039 44.7847 302.573C44.9945 303.108 45.4141 303.375 45.6239 303.375C56.3241 303.375 98.7053 102.173 128.078 102.173L128.498 102.173C138.149 102.707 141.087 116.869 141.087 135.038C141.087 167.904 131.226 213.862 131.226 219.207L131.226 219.474C131.435 220.543 131.645 221.077 132.065 221.077C136.471 221.077 155.353 179.126 160.179 169.507C165.424 160.155 172.977 154.544 180.95 154.544C185.146 154.544 189.342 155.88 193.329 159.354C196.476 162.026 197.944 167.37 197.944 174.851C197.944 209.587 166.893 287.076 163.956 315.132C163.746 316.735 163.536 318.338 163.536 319.674C163.536 326.354 166.263 330.629 170.46 330.629C172.977 330.629 176.124 329.293 179.481 325.552C194.797 309.253 218.296 257.149 227.527 237.643C228.786 236.04 230.884 235.506 232.773 235.506C234.661 235.506 236.339 236.307 236.339 237.109L236.339 237.376C228.157 259.019 187.244 349.066 164.375 349.066Z" fill="#000000" fill-rule="nonzero" opacity="1" stroke="none"/>
<path d="M281.868 357.349C271.167 357.349 265.503 342.119 265.503 322.079C265.503 308.719 268.02 293.756 272.846 279.06C275.783 270.776 290.889 224.818 290.889 217.069L290.889 216.802C290.889 215.733 290.05 215.198 289.211 215.198C288.581 215.198 287.742 215.466 287.323 216C268.65 229.895 249.138 271.311 241.165 295.626C239.906 299.901 236.969 301.504 234.031 301.504C229.835 301.504 225.639 298.031 225.01 293.221C224.17 286.808 223.751 280.663 223.751 274.517C223.751 261.959 225.429 249.667 227.527 236.04C244.732 116.869 286.274 74.3836 310.821 74.3836C315.856 74.3836 320.053 76.254 323.2 79.4604C327.396 83.4684 329.704 89.8813 329.704 97.8973C329.704 119.808 311.87 155.345 261.516 191.15C254.173 202.64 247.039 244.323 247.039 251.538C247.039 252.339 247.039 252.607 247.249 252.607C249.347 246.728 266.552 218.405 280.399 208.518C285.434 205.045 290.889 202.907 295.925 202.907C304.527 202.907 311.451 209.053 311.66 223.749C311.66 240.048 292.778 297.764 286.274 319.941C285.434 323.148 284.805 326.888 284.805 329.828C284.805 337.309 287.323 343.455 291.309 343.455C293.827 343.455 296.764 341.585 300.121 336.241C313.758 315.666 337.257 261.157 345.859 236.575C346.698 233.903 348.377 233.368 350.055 233.368C352.363 233.368 354.251 235.239 354.251 236.842C354.251 237.109 354.251 237.643 354.041 237.911C347.537 249.4 315.856 331.965 297.393 349.333C291.519 354.677 286.274 357.349 281.868 357.349ZM264.244 173.515C279.35 169.24 322.361 124.083 322.361 101.104C322.361 97.8973 321.521 95.2253 319.843 93.0877C317.325 90.1485 314.807 88.8125 312.29 88.8125C292.568 88.8125 266.761 158.018 264.244 173.515Z" fill="#000000" fill-rule="nonzero" opacity="1" stroke="none"/>
<path d="M399.57 357.349C388.87 357.349 383.205 342.119 383.205 322.079C383.205 308.719 385.723 293.756 390.548 279.06C393.485 270.776 408.592 224.818 408.592 217.069L408.592 216.802C408.592 215.733 407.752 215.198 406.913 215.198C406.284 215.198 405.444 215.466 405.025 216C386.352 229.895 366.84 271.311 358.867 295.626C357.608 299.901 354.671 301.504 351.734 301.504C347.537 301.504 343.341 298.031 342.712 293.221C341.873 286.808 341.453 280.663 341.453 274.517C341.453 261.959 343.132 249.667 345.23 236.04C362.434 116.869 403.976 74.3836 428.523 74.3836C433.559 74.3836 437.755 76.254 440.902 79.4604C445.098 83.4684 447.406 89.8813 447.406 97.8973C447.406 119.808 429.572 155.345 379.218 191.15C371.875 202.64 364.742 244.323 364.742 251.538C364.742 252.339 364.742 252.607 364.952 252.607C367.05 246.728 384.254 218.405 398.101 208.518C403.137 205.045 408.592 202.907 413.627 202.907C422.229 202.907 429.153 209.053 429.363 223.749C429.363 240.048 410.48 297.764 403.976 319.941C403.137 323.148 402.507 326.888 402.507 329.828C402.507 337.309 405.025 343.455 409.011 343.455C411.529 343.455 414.466 341.585 417.823 336.241C431.461 315.666 454.959 261.157 463.561 236.575C464.4 233.903 466.079 233.368 467.757 233.368C470.065 233.368 471.954 235.239 471.954 236.842C471.954 237.109 471.954 237.643 471.744 237.911C465.24 249.4 433.559 331.965 415.096 349.333C409.011 354.677 403.766 357.349 399.57 357.349ZM381.946 173.515C397.052 169.24 440.063 124.083 440.063 101.104C440.063 97.8973 439.223 95.2253 437.545 93.0877C435.027 90.1485 432.51 88.8125 429.992 88.8125C410.06 88.8125 384.254 158.018 381.946 173.515Z" fill="#000000" fill-rule="nonzero" opacity="1" stroke="none"/>
</g>
<path d="M277.138 151.265" fill="#000000" fill-rule="nonzero" opacity="1" stroke="none"/>
</g>
</svg>
