<?xml version="1.0" encoding="UTF-8" standalone="no"?>
<!DOCTYPE svg PUBLIC "-//W3C//DTD SVG 1.1//EN" "http://www.w3.org/Graphics/SVG/1.1/DTD/svg11.dtd">
<!-- Created with Vectornator (http://vectornator.io/) -->
<svg height="100%" stroke-miterlimit="10" style="fill-rule:nonzero;clip-rule:evenodd;stroke-linecap:round;stroke-linejoin:round;" version="1.1" viewBox="0 0 595.35 419.58" width="100%" xml:space="preserve" xmlns="http://www.w3.org/2000/svg" xmlns:vectornator="http://vectornator.io" xmlns:xlink="http://www.w3.org/1999/xlink">
<defs/>
<g id="Ebene-1" vectornator:layerName="Ebene 1">
<path d="M524.757 388.368C521.425 388.368 518.536 387.221 515.649 383.496C508.762 375.469 500.098 367.157 500.098 351.68L500.098 349.386C501.876 337.348 504.541 332.188 504.541 321.296C504.541 316.424 508.54 312.411 512.094 312.411C516.092 313.271 518.093 316.71 521.647 316.71L522.535 316.71C528.534 319.576 533.42 323.876 537.419 329.609C539.196 332.475 540.751 335.628 540.751 339.641C540.085 346.806 539.196 350.533 539.196 358.846C538.975 364.865 538.308 370.597 536.975 376.616C535.642 385.215 531.866 387.509 524.757 388.368ZM539.641 305.245C538.308 305.245 537.197 304.959 535.864 303.525C531.421 299.799 526.312 297.793 522.758 291.774C520.536 288.62 515.871 288.047 514.76 283.461C512.538 277.155 512.538 274.288 510.761 266.55C514.76 256.518 516.315 245.339 517.87 234.446C521.202 213.237 524.312 191.165 528.755 169.955C531.866 155.909 533.42 140.719 536.753 128.679C541.64 110.622 544.528 91.7039 548.971 72.7865C550.748 64.4741 553.414 55.8752 553.859 47.5629C553.859 43.8367 556.08 41.5437 558.746 41.257C575.184 41.257 592.068 53.2955 592.068 70.2069C592.068 71.9267 592.068 73.0732 591.846 74.2197C588.069 94.5702 584.071 114.634 579.627 135.559C570.964 181.42 568.965 190.879 562.299 232.154C559.19 250.499 556.08 269.13 555.192 288.047C555.192 293.78 553.859 296.932 551.415 298.939C547.416 302.951 544.972 304.672 539.641 305.245Z" fill="#ffffff" fill-rule="nonzero" opacity="1" stroke="none"/>
<g opacity="1">
<path d="M171.761 353.972L171.761 353.972C154.433 353.399 144.881 337.348 144.881 316.424C144.881 310.691 145.548 304.098 147.103 297.793C149.991 278.588 186.201 179.7 186.201 160.783C186.201 159.063 185.757 157.916 185.091 157.63L184.424 157.63C169.54 157.63 145.103 248.492 125.776 248.492L123.555 247.919C118.223 246.199 116.446 237.026 116.446 224.414C116.446 189.159 131.33 125.527 131.33 110.335C131.33 108.042 131.108 106.896 130.442 106.896C118.223 107.756 68.906 337.921 32.0292 339.354C18.9225 337.635 15.5902 323.303 15.5902 310.117C15.5902 301.232 16.9231 292.919 18.0338 288.62C27.5863 248.205 47.3576 185.433 57.3543 145.591C59.5758 137.278 61.7973 122.088 61.7973 110.335C61.7973 106.609 61.5752 102.883 60.9087 100.303C58.4651 89.125 54.022 84.5384 48.9126 84.5384C35.8058 84.5384 18.4781 112.915 18.4781 131.546C18.4781 139.858 22.2547 146.164 31.585 146.738C32.0292 146.738 32.4735 147.31 32.4735 147.884C32.4735 148.457 32.2514 149.031 32.0292 149.604C31.585 150.464 30.9185 150.751 30.2521 151.324C28.0306 152.47 25.8091 153.043 23.8097 153.043L20.9218 152.757C13.1466 151.61 9.59214 144.731 9.59214 135.272C9.59214 111.482 30.4742 71.64 52.2448 71.64C56.4657 71.64 60.9087 73.0732 65.1295 76.7994C78.2364 87.6919 83.1236 106.609 83.1236 128.679C83.1236 191.738 44.4697 282.314 44.4697 301.232C44.4697 302.379 44.6918 303.525 45.1361 304.098C45.3582 304.672 45.8025 304.959 46.0247 304.959C57.3543 304.959 102.228 89.125 133.329 89.125L133.774 89.125C143.992 89.6979 147.103 104.89 147.103 124.38C147.103 159.636 136.662 208.936 136.662 214.67L136.662 214.956C136.883 216.103 137.106 216.676 137.55 216.676C142.216 216.676 162.208 171.674 167.318 161.356C172.872 151.324 180.869 145.304 189.311 145.304C193.754 145.304 198.197 146.738 202.418 150.464C205.75 153.331 207.305 159.063 207.305 167.088C207.305 204.35 174.427 287.474 171.317 317.57C171.095 319.29 170.873 321.01 170.873 322.443C170.873 329.609 173.76 334.194 178.204 334.194C180.869 334.194 184.201 332.761 187.756 328.748C203.973 311.264 228.854 255.371 238.628 234.446C239.961 232.727 242.182 232.154 244.182 232.154C246.181 232.154 247.958 233.013 247.958 233.874L247.958 234.16C239.295 257.377 195.975 353.972 171.761 353.972Z" fill="#ffffff" fill-rule="nonzero" opacity="1" stroke="none"/>
<path d="M296.165 362.858C284.835 362.858 278.838 346.52 278.838 325.023C278.838 310.691 281.503 294.64 286.613 278.875C289.722 269.989 305.717 220.689 305.717 212.376L305.717 212.09C305.717 210.943 304.829 210.369 303.94 210.369C303.273 210.369 302.385 210.657 301.941 211.23C282.17 226.135 261.51 270.563 253.068 296.646C251.735 301.232 248.625 302.951 245.514 302.951C241.072 302.951 236.629 299.226 235.963 294.066C235.073 287.187 234.63 280.595 234.63 274.002C234.63 260.531 236.406 247.345 238.628 232.727C256.845 104.89 300.831 59.3148 326.821 59.3148C332.153 59.3148 336.597 61.3212 339.929 64.7608C344.371 69.0602 346.815 75.9395 346.815 84.5384C346.815 108.042 327.932 146.164 274.616 184.572C266.841 196.898 259.288 241.612 259.288 249.352C259.288 250.211 259.288 250.499 259.51 250.499C261.731 244.192 279.948 213.809 294.61 203.203C299.941 199.478 305.717 197.184 311.049 197.184C320.157 197.184 327.489 203.777 327.71 219.542C327.71 237.026 307.717 298.939 300.831 322.729C299.941 326.169 299.275 330.181 299.275 333.335C299.275 341.36 301.941 347.953 306.162 347.953C308.828 347.953 311.938 345.947 315.492 340.215C329.931 318.143 354.813 259.67 363.921 233.301C364.809 230.434 366.587 229.861 368.363 229.861C370.807 229.861 372.806 231.868 372.806 233.587C372.806 233.874 372.806 234.446 372.584 234.734C365.697 247.058 332.153 335.628 312.604 354.259C306.384 359.991 300.831 362.858 296.165 362.858ZM277.505 165.655C293.499 161.069 339.04 112.628 339.04 87.9783C339.04 84.5384 338.151 81.6721 336.374 79.3791C333.708 76.2261 331.042 74.793 328.377 74.793C307.495 74.793 280.17 149.031 277.505 165.655Z" fill="#ffffff" fill-rule="nonzero" opacity="1" stroke="none"/>
<path d="M420.791 362.858C409.462 362.858 403.463 346.52 403.463 325.023C403.463 310.691 406.129 294.64 411.238 278.875C414.348 269.989 430.344 220.689 430.344 212.376L430.344 212.09C430.344 210.943 429.454 210.369 428.566 210.369C427.9 210.369 427.01 210.657 426.567 211.23C406.795 226.135 386.136 270.563 377.694 296.646C376.361 301.232 373.251 302.951 370.141 302.951C365.697 302.951 361.254 299.226 360.588 294.066C359.7 287.187 359.255 280.595 359.255 274.002C359.255 260.531 361.033 247.345 363.255 232.727C381.47 104.89 425.456 59.3148 451.447 59.3148C456.779 59.3148 461.222 61.3212 464.554 64.7608C468.997 69.0602 471.441 75.9395 471.441 84.5384C471.441 108.042 452.558 146.164 399.242 184.572C391.467 196.898 383.914 241.612 383.914 249.352C383.914 250.211 383.914 250.499 384.137 250.499C386.358 244.192 404.574 213.809 419.236 203.203C424.568 199.478 430.344 197.184 435.675 197.184C444.783 197.184 452.114 203.777 452.336 219.542C452.336 237.026 432.343 298.939 425.456 322.729C424.568 326.169 423.901 330.181 423.901 333.335C423.901 341.36 426.567 347.953 430.787 347.953C433.453 347.953 436.563 345.947 440.118 340.215C454.558 318.143 479.438 259.67 488.546 233.301C489.434 230.434 491.212 229.861 492.989 229.861C495.433 229.861 497.433 231.868 497.433 233.587C497.433 233.874 497.433 234.446 497.21 234.734C490.324 247.058 456.779 335.628 437.23 354.259C430.787 359.991 425.234 362.858 420.791 362.858ZM402.13 165.655C418.125 161.069 463.666 112.628 463.666 87.9783C463.666 84.5384 462.776 81.6721 461 79.3791C458.334 76.2261 455.669 74.793 453.002 74.793C431.898 74.793 404.574 149.031 402.13 165.655Z" fill="#ffffff" fill-rule="nonzero" opacity="1" stroke="none"/>
</g>
</g>
</svg>
