<?xml version="1.0" encoding="UTF-8" standalone="no"?>
<!DOCTYPE svg PUBLIC "-//W3C//DTD SVG 1.1//EN" "http://www.w3.org/Graphics/SVG/1.1/DTD/svg11.dtd">
<!-- Created with Vectornator (http://vectornator.io/) -->
<svg height="100%" stroke-miterlimit="10" style="fill-rule:nonzero;clip-rule:evenodd;stroke-linecap:round;stroke-linejoin:round;" version="1.1" viewBox="0 0 595.35 419.58" width="100%" xml:space="preserve" xmlns="http://www.w3.org/2000/svg" xmlns:vectornator="http://vectornator.io" xmlns:xlink="http://www.w3.org/1999/xlink">
<defs/>
<g id="Ebene-1" vectornator:layerName="Ebene 1">
<path d="M510.275 389.327C507.047 389.327 504.25 388.231 501.452 384.669C494.781 376.998 486.388 369.053 486.388 354.259L486.388 352.067C488.109 340.56 490.692 335.629 490.692 325.218C490.692 320.561 494.565 316.725 498.009 316.725C501.882 317.547 503.819 320.835 507.262 320.835L508.123 320.835C513.934 323.574 518.668 327.684 522.542 333.163C524.264 335.903 525.77 338.917 525.77 342.752C525.124 349.601 524.264 353.163 524.264 361.108C524.048 366.861 523.403 372.341 522.112 378.094C520.82 386.313 517.162 388.505 510.275 389.327ZM524.694 309.876C523.403 309.876 522.327 309.602 521.035 308.232C516.731 304.67 511.782 302.753 508.338 296.999C506.186 293.986 501.667 293.438 500.591 289.054C498.439 283.027 498.439 280.287 496.717 272.89C500.591 263.301 502.097 252.616 503.604 242.205C506.832 221.932 509.845 200.836 514.149 180.562C517.162 167.138 518.668 152.617 521.896 141.111C526.631 123.851 529.428 105.769 533.733 87.6866C535.454 79.7415 538.037 71.5224 538.467 63.5773C538.467 60.0157 540.619 57.8239 543.202 57.55C559.127 57.55 575.482 69.0567 575.482 85.2209C575.482 86.8647 575.482 87.9606 575.267 89.0564C571.609 108.508 567.735 127.686 563.431 147.686C555.038 191.521 553.101 200.562 546.645 240.014C543.632 257.548 540.619 275.356 539.758 293.438C539.758 298.917 538.467 301.931 536.1 303.848C532.226 307.684 529.859 309.328 524.694 309.876Z" fill="#3e68ff" fill-rule="nonzero" opacity="1" stroke="none"/>
<g opacity="1">
<path d="M168.315 356.451L168.315 356.451C151.529 355.903 142.275 340.56 142.275 320.561C142.275 315.081 142.921 308.78 144.427 302.753C147.225 284.397 182.303 189.877 182.303 171.795C182.303 170.151 181.873 169.056 181.227 168.782L180.582 168.782C166.163 168.782 142.49 255.63 123.768 255.63L121.615 255.082C116.451 253.438 114.729 244.671 114.729 232.616C114.729 198.918 129.148 138.097 129.148 123.577C129.148 121.385 128.932 120.289 128.287 120.289C116.451 121.111 68.6751 341.108 32.9511 342.478C20.254 340.834 17.026 327.136 17.026 314.533C17.026 306.04 18.3172 298.095 19.3932 293.986C28.647 255.356 47.8002 195.357 57.4845 157.275C59.6365 149.33 61.7885 134.809 61.7885 123.577C61.7885 120.015 61.5733 116.453 60.9277 113.988C58.5605 103.303 54.2564 98.9193 49.3067 98.9193C36.6096 98.9193 19.8236 126.042 19.8236 143.85C19.8236 151.795 23.4821 157.823 32.5207 158.371C32.9511 158.371 33.3815 158.919 33.3815 159.467C33.3815 160.015 33.1663 160.562 32.9511 161.11C32.5207 161.932 31.8751 162.206 31.2295 162.754C29.0774 163.85 26.9254 164.398 24.9885 164.398L22.1909 164.124C14.6587 163.028 11.2154 156.453 11.2154 147.412C11.2154 124.672 31.4447 86.5907 52.5347 86.5907C56.6236 86.5907 60.9277 87.9606 65.0166 91.5222C77.7137 101.933 82.4482 120.015 82.4482 141.111C82.4482 201.384 45.0026 287.958 45.0026 306.04C45.0026 307.136 45.2178 308.232 45.6482 308.78C45.8634 309.328 46.2938 309.602 46.509 309.602C57.4845 309.602 100.956 103.303 131.084 103.303L131.515 103.303C141.414 103.851 144.427 118.371 144.427 137.001C144.427 170.699 134.313 217.822 134.313 223.301L134.313 223.575C134.528 224.671 134.743 225.219 135.173 225.219C139.693 225.219 159.061 182.206 164.011 172.343C169.391 162.754 177.138 157.001 185.316 157.001C189.62 157.001 193.924 158.371 198.013 161.932C201.241 164.672 202.748 170.151 202.748 177.823C202.748 213.439 170.897 292.89 167.884 321.656C167.669 323.3 167.454 324.944 167.454 326.314C167.454 333.163 170.252 337.547 174.556 337.547C177.138 337.547 180.366 336.177 183.81 332.341C199.52 315.629 223.623 262.205 233.092 242.205C234.383 240.562 236.535 240.014 238.472 240.014C240.408 240.014 242.13 240.835 242.13 241.657L242.13 241.931C233.737 264.123 191.772 356.451 168.315 356.451Z" fill="#3e68ff" fill-rule="nonzero" opacity="1" stroke="none"/>
<path d="M288.83 364.944C277.854 364.944 272.044 349.327 272.044 328.78C272.044 315.081 274.626 299.739 279.576 284.671C282.589 276.178 298.083 229.055 298.083 221.11L298.083 220.836C298.083 219.74 297.223 219.192 296.362 219.192C295.716 219.192 294.855 219.466 294.425 220.014C275.272 234.26 255.258 276.725 247.08 301.657C245.789 306.04 242.776 307.684 239.763 307.684C235.459 307.684 231.155 304.122 230.509 299.191C229.648 292.616 229.218 286.314 229.218 280.013C229.218 267.137 230.939 254.534 233.092 240.562C250.738 118.371 293.349 74.81 318.528 74.81C323.693 74.81 327.997 76.7278 331.225 80.0154C335.529 84.125 337.896 90.7003 337.896 98.9193C337.896 121.385 319.604 157.823 267.955 194.535C260.423 206.315 253.106 249.055 253.106 256.452C253.106 257.274 253.106 257.548 253.321 257.548C255.473 251.52 273.12 222.48 287.323 212.343C292.488 208.781 298.083 206.589 303.248 206.589C312.072 206.589 319.173 212.891 319.389 227.959C319.389 244.671 300.02 303.848 293.349 326.588C292.488 329.876 291.842 333.711 291.842 336.725C291.842 344.396 294.425 350.697 298.514 350.697C301.096 350.697 304.109 348.779 307.552 343.3C321.541 322.204 345.644 266.315 354.467 241.109C355.328 238.37 357.049 237.822 358.771 237.822C361.138 237.822 363.075 239.74 363.075 241.383C363.075 241.657 363.075 242.205 362.86 242.479C356.189 254.26 323.693 338.917 304.755 356.725C298.729 362.204 293.349 364.944 288.83 364.944ZM270.752 176.453C286.247 172.069 330.364 125.768 330.364 102.207C330.364 98.9193 329.503 96.1796 327.782 93.9879C325.199 90.9742 322.617 89.6044 320.034 89.6044C299.805 89.6044 273.335 160.562 270.752 176.453Z" fill="#3e68ff" fill-rule="nonzero" opacity="1" stroke="none"/>
<path d="M409.559 364.944C398.584 364.944 392.773 349.327 392.773 328.78C392.773 315.081 395.356 299.739 400.306 284.671C403.318 276.178 418.813 229.055 418.813 221.11L418.813 220.836C418.813 219.74 417.952 219.192 417.092 219.192C416.446 219.192 415.585 219.466 415.155 220.014C396.002 234.26 375.987 276.725 367.81 301.657C366.518 306.04 363.506 307.684 360.493 307.684C356.189 307.684 351.885 304.122 351.239 299.191C350.378 292.616 349.948 286.314 349.948 280.013C349.948 267.137 351.669 254.534 353.821 240.562C371.468 118.371 414.079 74.81 439.258 74.81C444.423 74.81 448.727 76.7278 451.955 80.0154C456.259 84.125 458.626 90.7003 458.626 98.9193C458.626 121.385 440.334 157.823 388.685 194.535C381.152 206.315 373.835 249.055 373.835 256.452C373.835 257.274 373.835 257.548 374.051 257.548C376.203 251.52 393.849 222.48 408.053 212.343C413.218 208.781 418.813 206.589 423.978 206.589C432.802 206.589 439.903 212.891 440.119 227.959C440.119 244.671 420.75 303.848 414.079 326.588C413.218 329.876 412.572 333.711 412.572 336.725C412.572 344.396 415.155 350.697 419.244 350.697C421.826 350.697 424.839 348.779 428.282 343.3C442.271 322.204 466.373 266.315 475.197 241.109C476.058 238.37 477.779 237.822 479.501 237.822C481.868 237.822 483.805 239.74 483.805 241.383C483.805 241.657 483.805 242.205 483.59 242.479C476.919 254.26 444.423 338.917 425.485 356.725C419.244 362.204 413.864 364.944 409.559 364.944ZM391.482 176.453C406.977 172.069 451.094 125.768 451.094 102.207C451.094 98.9193 450.233 96.1796 448.511 93.9879C445.929 90.9742 443.347 89.6044 440.764 89.6044C420.32 89.6044 393.849 160.562 391.482 176.453Z" fill="#3e68ff" fill-rule="nonzero" opacity="1" stroke="none"/>
</g>
</g>
</svg>
