<?xml version="1.0" encoding="utf-8"?>
<!-- Generator: Adobe Illustrator 25.2.3, SVG Export Plug-In . SVG Version: 6.00 Build 0)  -->
<svg version="1.1" id="Ebene_1" xmlns="http://www.w3.org/2000/svg" xmlns:xlink="http://www.w3.org/1999/xlink" x="0px" y="0px"
	 viewBox="0 0 269 132" style="enable-background:new 0 0 269 132;" xml:space="preserve">
<style type="text/css">
	.st0{fill:#289999;}
	.st1{fill:#4CBBBC;}
</style>
<g>
	<path class="st0" d="M236.1,127.9c-1.5,0-2.8-0.4-4.1-1.7c-3.1-2.8-7-5.7-7-11.1v-0.8c0.8-4.2,2-6,2-9.8c0-1.7,1.8-3.1,3.4-3.1
		c1.8,0.3,2.7,1.5,4.3,1.5h0.4c2.7,1,4.9,2.5,6.7,4.5c0.8,1,1.5,2.1,1.5,3.5c-0.3,2.5-0.7,3.8-0.7,6.7c-0.1,2.1-0.4,4.1-1,6.2
		C241,126.8,239.3,127.6,236.1,127.9z M242.8,98.9c-0.6,0-1.1-0.1-1.7-0.6c-2-1.3-4.3-2-5.9-4.1c-1-1.1-3.1-1.3-3.6-2.9
		c-1-2.2-1-3.2-1.8-5.9c1.8-3.5,2.5-7.4,3.2-11.2c1.5-7.4,2.9-15.1,4.9-22.5c1.4-4.9,2.1-10.2,3.6-14.4c2.2-6.3,3.5-12.9,5.5-19.5
		c0.8-2.9,2-5.9,2.2-8.8c0-1.3,1-2.1,2.2-2.2c7.4,0,15,4.2,15,10.1c0,0.6,0,1-0.1,1.4c-1.7,7.1-3.5,14.1-5.5,21.4
		c-3.9,16-4.8,19.3-7.8,33.7c-1.4,6.4-2.8,12.9-3.2,19.5c0,2-0.6,3.1-1.7,3.8C246.3,98.1,245.2,98.7,242.8,98.9z"/>
</g>
<g>
	<path class="st1" d="M77.2,115.9L77.2,115.9c-7.8-0.2-12.1-5.8-12.1-13.1c0-2,0.3-4.3,1-6.5c1.3-6.7,17.6-41.2,17.6-47.8
		c0-0.6-0.2-1-0.5-1.1h-0.3c-6.7,0-17.7,31.7-26.4,31.7l-1-0.2c-2.4-0.6-3.2-3.8-3.2-8.2c0-12.3,6.7-34.5,6.7-39.8
		c0-0.8-0.1-1.2-0.4-1.2c-5.5,0.3-27.7,80.6-44.3,81.1c-5.9-0.6-7.4-5.6-7.4-10.2c0-3.1,0.6-6,1.1-7.5c4.3-14.1,13.2-36,17.7-49.9
		c1-2.9,2-8.2,2-12.3c0-1.3-0.1-2.6-0.4-3.5c-1.1-3.9-3.1-5.5-5.4-5.5c-5.9,0-13.7,9.9-13.7,16.4c0,2.9,1.7,5.1,5.9,5.3
		c0.2,0,0.4,0.2,0.4,0.4c0,0.2-0.1,0.4-0.2,0.6c-0.2,0.3-0.5,0.4-0.8,0.6c-1,0.4-2,0.6-2.9,0.6l-1.3-0.1c-3.5-0.4-5.1-2.8-5.1-6.1
		c0-8.3,9.4-22.2,19.2-22.2c1.9,0,3.9,0.5,5.8,1.8c5.9,3.8,8.1,10.4,8.1,18.1c0,22-17.4,53.6-17.4,60.2c0,0.4,0.1,0.8,0.3,1
		c0.1,0.2,0.3,0.3,0.4,0.3c5.1,0,25.3-75.3,39.3-75.3h0.2c4.6,0.2,6,5.5,6,12.3c0,12.3-4.7,29.5-4.7,31.5v0.1
		c0.1,0.4,0.2,0.6,0.4,0.6c2.1,0,11.1-15.7,13.4-19.3c2.5-3.5,6.1-5.6,9.9-5.6c2,0,4,0.5,5.9,1.8c1.5,1,2.2,3,2.2,5.8
		c0,13-14.8,42-16.2,52.5c-0.1,0.6-0.2,1.2-0.2,1.7c0,2.5,1.3,4.1,3.3,4.1c1.2,0,2.7-0.5,4.3-1.9c7.3-6.1,18.5-25.6,22.9-32.9
		c0.6-0.6,1.6-0.8,2.5-0.8c0.9,0,1.7,0.3,1.7,0.6v0.1C107.6,82.2,88.1,115.9,77.2,115.9z"/>
	<path class="st1" d="M133.2,119c-5.1,0-7.8-5.7-7.8-13.2c0-5,1.2-10.6,3.5-16.1c1.4-3.1,8.6-20.3,8.6-23.2v-0.1
		c0-0.4-0.4-0.6-0.8-0.6c-0.3,0-0.7,0.1-0.9,0.3c-8.9,5.2-18.2,20.7-22,29.8c-0.6,1.6-2,2.2-3.4,2.2c-2,0-4-1.3-4.3-3.1
		c-0.4-2.4-0.6-4.7-0.6-7c0-4.7,0.8-9.3,1.8-14.4c8.2-44.6,28-60.5,39.7-60.5c2.4,0,4.4,0.7,5.9,1.9c2,1.5,3.1,3.9,3.1,6.9
		c0,8.2-8.5,21.5-32.5,34.9c-3.5,4.3-6.9,19.9-6.9,22.6c0,0.3,0,0.4,0.1,0.4c1-2.2,9.2-12.8,15.8-16.5c2.4-1.3,5-2.1,7.4-2.1
		c4.1,0,7.4,2.3,7.5,7.8c0,6.1-9,27.7-12.1,36c-0.4,1.2-0.7,2.6-0.7,3.7c0,2.8,1.2,5.1,3.1,5.1c1.2,0,2.6-0.7,4.2-2.7
		c6.5-7.7,17.7-28.1,21.8-37.3c0.4-1,1.2-1.2,2-1.2c1.1,0,2,0.7,2,1.3c0,0.1,0,0.3-0.1,0.4c-3.1,4.3-18.2,35.2-27,41.7
		C137.8,118,135.3,119,133.2,119z M124.8,50.2c7.2-1.6,27.7-18.5,27.7-27.1c0-1.2-0.4-2.2-1.2-3c-1.2-1.1-2.4-1.6-3.6-1.6
		C138.3,18.5,126,44.4,124.8,50.2z"/>
	<path class="st1" d="M189.3,119c-5.1,0-7.8-5.7-7.8-13.2c0-5,1.2-10.6,3.5-16.1c1.4-3.1,8.6-20.3,8.6-23.2v-0.1
		c0-0.4-0.4-0.6-0.8-0.6c-0.3,0-0.7,0.1-0.9,0.3c-8.9,5.2-18.2,20.7-22,29.8c-0.6,1.6-2,2.2-3.4,2.2c-2,0-4-1.3-4.3-3.1
		c-0.4-2.4-0.6-4.7-0.6-7c0-4.7,0.8-9.3,1.8-14.4c8.2-44.6,28-60.5,39.7-60.5c2.4,0,4.4,0.7,5.9,1.9c2,1.5,3.1,3.9,3.1,6.9
		c0,8.2-8.5,21.5-32.5,34.9c-3.5,4.3-6.9,19.9-6.9,22.6c0,0.3,0,0.4,0.1,0.4c1-2.2,9.2-12.8,15.8-16.5c2.4-1.3,5-2.1,7.4-2.1
		c4.1,0,7.4,2.3,7.5,7.8c0,6.1-9,27.7-12.1,36c-0.4,1.2-0.7,2.6-0.7,3.7c0,2.8,1.2,5.1,3.1,5.1c1.2,0,2.6-0.7,4.2-2.7
		c6.5-7.7,17.7-28.1,21.8-37.3c0.4-1,1.2-1.2,2-1.2c1.1,0,2,0.7,2,1.3c0,0.1,0,0.3-0.1,0.4c-3.1,4.3-18.2,35.2-27,41.7
		C193.8,118,191.3,119,189.3,119z M180.9,50.2c7.2-1.6,27.7-18.5,27.7-27.1c0-1.2-0.4-2.2-1.2-3c-1.2-1.1-2.4-1.6-3.6-1.6
		C194.3,18.5,182,44.4,180.9,50.2z"/>
</g>
<g>
</g>
<g>
</g>
<g>
</g>
<g>
</g>
<g>
</g>
<g>
</g>
</svg>
